<?xml version="1.0" encoding="UTF-8"?>
<svg id="Layer_1" data-name="Layer 1" xmlns="http://www.w3.org/2000/svg" viewBox="0 0 160 160" role="img" aria-label="The Highlander">
  <defs>
    <style>
      .cls-1 {
        fill: #fff;
      }

      .cls-2 {
        fill: red;
      }
    </style>
  </defs>
  <polygon class="cls-2" points="20.89 40.79 99.87 10.89 142.65 121.96 123.45 128.54 120.71 121.13 39.54 149.11 17.35 88.83 36.09 82 20.89 40.79"/>
  <g>
    <polygon class="cls-1" points="87.33 105.08 77.4 105.08 77.39 85.3 60.6 85.3 60.59 105.07 50.72 105.09 50.72 56.31 60.59 56.33 60.6 75.66 77.39 75.66 77.4 56.31 87.33 56.31 87.33 105.08"/>
    <polygon class="cls-1" points="102.29 105.04 92.62 105.09 92.62 69.58 102.29 69.58 102.29 105.04"/>
    <rect class="cls-1" x="92.68" y="56.31" width="9.6" height="9.25" transform="translate(-.06 .1)"/>
  </g>
</svg>
